PathFileType	4	(X/Y/Z)	SUBJ51_1_walk_RCNL2025.trc
DataRate	CameraRate	NumFrames	NumMarkers	Units	OrigDataRate	OrigDataStartFrame	OrigNumFrames
100	100	11	25	mm	100	31	241
Frame#	Time	R_Shoulder			L_Shoulder			C7			J_Notch			R_Elbow			L_Elbow			R_Wrist			L_Wrist			R_Asis			L_Asis			Sacral			Thoracic			Sternum			R_Thigh_Lateral			R_Knee_Lateral			R_Shank_Lateral			R_Ankle_Lateral			R_Heel			R_Toe			L_Thigh_Lateral			L_Knee_Lateral			L_Shank_Lateral			L_Ankle_Lateral			L_Heel			L_Toe		
		X1	Y1	Z1	X2	Y2	Z2	X3	Y3	Z3	X4	Y4	Z4	X5	Y5	Z5	X6	Y6	Z6	X7	Y7	Z7	X8	Y8	Z8	X9	Y9	Z9	X10	Y10	Z10	X11	Y11	Z11	X12	Y12	Z12	X13	Y13	Z13	X14	Y14	Z14	X15	Y15	Z15	X16	Y16	Z16	X17	Y17	Z17	X18	Y18	Z18	X19	Y19	Z19	X20	Y20	Z20	X21	Y21	Z21	X22	Y22	Z22	X23	Y23	Z23	X24	Y24	Z24	X25	Y25	Z25
31	0.30000000	-933.352356	1484.865112	-60.052647	-952.743164	1466.295898	-513.258301	-1033.672974	1592.850220	-300.570221	-886.977783	1478.705444	-292.286194	-978.816650	1194.773560	55.487309	-1064.515381	1157.976807	-579.278259	-834.107544	969.554108	31.761290	-1037.091095	895.649933	-571.447418	-925.316162	1028.450195	-139.714493	-895.049133	1034.103638	-376.504608	-1126.693481	1063.011108	-286.911652	-1137.347290	1388.696655	-283.585571	-846.203491	1249.096069	-271.983154	-949.242249	627.183777	-55.052429	-961.247986	512.451172	-100.781326	-1133.751221	387.362946	-40.970440	-1324.122192	261.293732	-159.860657	-1338.934326	305.524719	-220.166183	-1311.820312	97.176155	-195.778564	-896.143372	647.565735	-480.643158	-891.646545	530.405884	-431.090820	-894.660583	338.134094	-470.413483	-906.269104	73.432793	-363.508240	-962.748718	77.358704	-310.286102	-751.264587	48.897484	-329.409515
32	0.31000000	-922.017456	1486.175049	-59.580547	-938.460510	1468.834229	-513.149841	-1020.782227	1594.951294	-300.773560	-874.582520	1480.786377	-291.854553	-970.767273	1195.241089	53.777328	-1043.400635	1158.734985	-580.329407	-831.657166	965.804718	30.838213	-1009.184784	897.255463	-572.722229	-911.896606	1031.129761	-139.434235	-882.139709	1035.240356	-377.324463	-1113.388062	1065.237549	-287.235046	-1124.325439	1390.512451	-284.784546	-833.189392	1251.414917	-272.272125	-925.489685	631.632019	-53.608212	-933.528137	516.730896	-99.192780	-1104.906494	391.161743	-40.413704	-1293.904663	263.457977	-159.978958	-1310.333984	305.936554	-221.257553	-1275.846802	99.776932	-191.153839	-889.596375	647.870850	-481.269684	-887.519226	530.384338	-431.737152	-893.236084	338.187347	-471.142273	-906.269165	73.473343	-363.431854	-962.831970	77.649605	-310.442078	-751.293213	48.830353	-329.443237
33	0.32000000	-910.825989	1487.426147	-59.062023	-924.293335	1471.391479	-513.023132	-1007.980530	1596.920410	-300.917084	-862.270752	1482.727905	-291.406189	-962.695007	1195.703979	52.043461	-1022.117615	1159.644775	-581.391113	-829.451691	962.085083	29.905217	-980.954376	899.240143	-573.904114	-898.499756	1033.682739	-139.374908	-869.410583	1036.297485	-378.160095	-1100.151123	1067.344727	-287.333038	-1111.374268	1392.177368	-285.940582	-820.201355	1253.673340	-272.609924	-901.824585	636.300781	-52.176613	-906.244751	521.229004	-97.699066	-1076.505493	395.106934	-40.105141	-1263.047974	264.100922	-160.274139	-1281.332275	304.745789	-222.438843	-1238.259766	101.359779	-186.520721	-883.331909	648.143982	-481.907776	-883.633606	530.359619	-432.435059	-891.662903	338.265472	-471.912292	-906.218994	73.541039	-363.398102	-962.907837	78.031029	-310.696411	-751.338440	48.755707	-329.488770
34	0.33000000	-899.747925	1488.607544	-58.512928	-910.224976	1473.933838	-512.884338	-995.252136	1598.728882	-301.009460	-849.974976	1484.517456	-290.961334	-954.595520	1196.153076	50.284538	-1000.752563	1160.697754	-582.481506	-827.517212	958.430115	28.956256	-952.434265	901.625946	-574.982727	-885.110046	1036.094360	-139.615524	-856.884155	1037.287109	-379.014343	-1086.977173	1069.268188	-287.222931	-1098.482300	1393.669922	-287.038849	-807.241455	1255.824829	-272.977661	-878.338806	641.111328	-50.783634	-879.428528	525.833191	-96.336273	-1048.473511	398.931549	-39.964577	-1231.580078	263.171082	-160.660172	-1251.822998	301.989349	-223.583725	-1199.384277	101.943756	-181.946060	-877.278687	648.387695	-482.527740	-879.939758	530.334167	-433.148834	-889.997253	338.346497	-472.663422	-906.144775	73.621826	-363.393341	-962.968750	78.511726	-311.025055	-751.394592	48.678856	-329.542267
35	0.34000000	-888.749084	1489.691772	-57.947990	-896.234070	1476.416138	-512.731567	-982.578796	1600.348755	-301.062469	-837.647217	1486.139648	-290.528687	-946.482544	1196.570435	48.507324	-979.390076	1161.868774	-583.619385	-825.867401	954.864502	27.981364	-923.670074	904.422638	-575.951874	-871.708435	1038.358521	-140.185913	-844.557434	1038.205200	-379.877228	-1073.860474	1070.951660	-286.929504	-1085.638794	1394.970825	-288.073181	-794.313110	1257.822021	-273.359589	-855.126770	645.982849	-49.457043	-853.113831	530.441589	-95.140633	-1020.696655	402.311310	-39.928436	-1199.542603	260.670013	-161.063919	-1221.730835	297.707550	-224.616699	-1159.462524	101.596581	-177.504211	-871.374023	648.603516	-483.104980	-876.400024	530.311646	-433.842804	-888.341309	338.425323	-473.349792	-906.067322	73.706207	-363.400940	-963.009338	79.078735	-311.393463	-751.454834	48.606602	-329.603394
36	0.35000000	-877.791260	1490.639404	-57.380566	-882.297546	1478.786865	-512.557739	-969.941833	1601.754517	-301.087616	-825.266113	1487.574951	-290.105042	-938.381042	1196.928101	46.724388	-958.101624	1163.122070	-584.818420	-824.503052	951.402527	26.968691	-894.718323	907.626465	-576.808899	-858.258423	1040.473145	-141.062012	-832.383057	1039.041138	-380.745850	-1060.795166	1072.354126	-286.479370	-1072.833740	1396.064331	-289.043274	-781.417908	1259.619873	-273.744598	-832.270447	650.827759	-48.229145	-827.345764	534.962036	-94.149452	-993.048462	404.936279	-39.953262	-1166.981323	256.659485	-161.422897	-1191.010254	291.938171	-225.506744	-1118.659302	100.425705	-173.272491	-865.553772	648.789917	-483.618774	-872.978394	530.292175	-434.486176	-886.811157	338.506744	-473.940460	-905.997681	73.792030	-363.402344	-963.025574	79.693085	-311.754425	-751.511169	48.546387	-329.673767
37	0.36000000	-866.833069	1491.404541	-56.822475	-868.393677	1480.994873	-512.351746	-957.322815	1602.926025	-301.092316	-812.827332	1488.801514	-289.683594	-930.316467	1197.187866	44.951530	-936.939575	1164.416626	-586.085815	-823.412811	948.050690	25.907634	-865.646881	911.219574	-577.556915	-844.706482	1042.432251	-142.172119	-820.281372	1039.780884	-381.627197	-1047.775391	1073.453857	-285.896790	-1060.058105	1396.940063	-289.950867	-768.554565	1261.177856	-274.123657	-809.829346	655.549927	-47.136299	-802.179871	539.311523	-93.397087	-965.418213	406.571991	-40.013264	-1133.923950	251.254578	-161.684662	-1159.634399	284.711304	-226.252533	-1077.071899	98.565811	-169.324783	-859.743652	648.939514	-484.050720	-869.629150	530.270447	-435.057770	-885.494385	338.595184	-474.417633	-905.938660	73.879982	-363.379608	-963.013367	80.293266	-312.048798	-751.555664	48.505100	-329.754913
38	0.37000000	-855.831909	1491.939331	-56.282654	-854.502258	1482.991577	-512.097351	-944.703674	1603.849365	-301.077484	-800.332031	1489.796875	-289.260590	-922.308105	1197.307861	43.203693	-915.935120	1165.710815	-587.422729	-822.573212	944.811401	24.790537	-836.534821	915.169739	-578.205170	-831.005249	1044.217041	-143.417816	-808.178345	1040.401489	-382.519348	-1034.795288	1074.248657	-285.201843	-1047.301636	1397.592407	-290.796265	-755.719849	1262.461670	-274.486877	-787.841003	660.049622	-46.212803	-777.675476	543.418091	-92.907486	-937.735291	407.088593	-40.097775	-1100.362061	244.601730	-161.808716	-1127.582031	276.049896	-226.866882	-1034.743530	96.163940	-165.726166	-853.860168	649.039612	-484.386871	-866.288818	530.236633	-435.547333	-884.403442	338.687866	-474.774994	-905.886292	73.970093	-363.319855	-962.967407	80.811867	-312.218750	-751.581665	48.487770	-329.847687
39	0.38000000	-844.748291	1492.200195	-55.765007	-840.603882	1484.732788	-511.774567	-932.067078	1604.515625	-301.037689	-787.781189	1490.540649	-288.836487	-914.368286	1197.250977	41.491680	-895.096313	1166.966187	-588.823853	-821.944122	941.684387	23.611909	-807.465607	919.432495	-578.766113	-817.141724	1045.793823	-144.701660	-796.035034	1040.866943	-383.397980	-1021.848938	1074.751953	-284.409882	-1034.553955	1398.020630	-291.575104	-742.907715	1263.443726	-274.824860	-766.329102	664.235229	-45.482769	-753.892273	547.219482	-92.688225	-909.981140	406.457458	-40.208515	-1066.246460	236.850204	-161.771469	-1094.827515	265.984497	-227.361664	-991.681458	93.365517	-162.530136	-847.818542	649.074402	-484.620148	-862.873779	530.178101	-435.953033	-883.442993	338.775452	-475.016357	-905.830688	74.061623	-363.218719	-962.881592	81.201302	-312.229980	-751.584717	48.495823	-329.951508
40	0.39000000	-833.548584	1492.152100	-55.267536	-826.682861	1486.181641	-511.366241	-919.397522	1604.921875	-300.963379	-775.174866	1491.017822	-288.414093	-906.504639	1196.993042	39.821106	-874.411560	1168.151733	-590.279602	-821.458832	938.666321	22.368066	-778.517273	923.957733	-579.252075	-803.149475	1047.115112	-145.945068	-783.845032	1041.133179	-384.223785	-1008.931091	1074.986938	-283.531128	-1021.804443	1398.228149	-292.275665	-730.107422	1264.105835	-275.132263	-745.313904	668.035339	-44.955303	-730.891052	550.656433	-92.728806	-882.184448	404.727600	-40.354393	-1031.490601	228.122131	-161.576584	-1061.336304	254.582077	-227.734894	-947.882080	90.306328	-159.776184	-841.541199	649.026489	-484.748779	-859.285645	530.081604	-436.276642	-882.415588	338.847351	-475.151947	-905.757507	74.155045	-363.080658	-962.751648	81.450157	-312.084045	-751.562256	48.524910	-330.062103
41	0.40000000	-822.205811	1491.772095	-54.783348	-812.734680	1487.314087	-510.864075	-906.681885	1605.071411	-300.843323	-762.513184	1491.219727	-287.995850	-898.720703	1196.523438	38.193096	-853.858154	1169.247437	-591.779724	-821.019165	935.750641	21.057534	-749.757751	928.695740	-579.674805	-789.097351	1048.125488	-147.089874	-771.615540	1041.158569	-384.959381	-996.036438	1074.980713	-282.570923	-1009.042786	1398.221680	-292.879578	-717.303772	1264.441284	-275.410004	-724.816711	671.402161	-44.627670	-708.734802	553.665771	-93.003433	-854.400208	401.996124	-40.543938	-995.981079	218.495758	-161.262131	-1027.064575	241.973816	-227.965469	-903.355164	87.110550	-157.485199	-834.965820	648.876770	-484.771515	-855.423828	529.934021	-436.517273	-881.077454	338.896606	-475.192566	-905.651184	74.253326	-362.915222	-962.577148	81.585091	-311.815216	-751.513550	48.562557	-330.167908
